# xmcd
#
# Track frame offsets: 
#        150
#        17022
#        39663
#        58107
#        71902
#        98208
#        109610
#        133245
#        148841
#        158797
#        171949
#        192559
#
# Disc length: 2904 seconds
#
# Revision: 0
# Processed by: cddbd v1.5.2PL0 Copyright (c) Steve Scherf et al.
# Submitted via: ExactAudioCopy v0.99pb5
#
DISCID=b50b560c
DTITLE=Velvet - The grey mare's tail
DYEAR=1900
DGENRE=Celtic
TTITLE0=Lily of the west
TTITLE1=The Irish rover
TTITLE2=The wild colonial boy
TTITLE3=Hills of Connemara
TTITLE4=Ye Jacobites by name
TTITLE5=Reels: Mason's Apron - Tam Lin
TTITLE6=The fileds of Athenry
TTITLE7=The grey mare's tail
TTITLE8=Reels: Swallow's nest - Devil's dream
TTITLE9=Bonnie ship the diamond
TTITLE10=Paddy on the road
TTITLE11=Black is the colour
EXTD=
EXTT0=
EXTT1=
EXTT2=
EXTT3=
EXTT4=
EXTT5=
EXTT6=
EXTT7=
EXTT8=
EXTT9=
EXTT10=
EXTT11=
PLAYORDER=
